<?xml version="1.0" encoding="utf-8"?>
<!-- Generator: Adobe Illustrator 28.0.0, SVG Export Plug-In . SVG Version: 6.00 Build 0)  -->
<svg version="1.1" id="Capa_1" xmlns="http://www.w3.org/2000/svg" xmlns:xlink="http://www.w3.org/1999/xlink" x="0px" y="0px"
	 viewBox="0 0 740.43 107.66" style="enable-background:new 0 0 740.43 107.66;" xml:space="preserve">
<style type="text/css">
	.st0{fill:#34B8C1;}
</style>
<path class="st0" d="M214.45,51.35h22.37c3.52,0,6.44-2.91,6.44-6.41c0-3.51-2.92-6.41-6.44-6.41h-22.37h-11.37h-9.98V28.6h9.98
	h6.44h27.3c9.03,0,16.42,7.35,16.42,16.34c0,7.64-5.34,14.1-12.5,15.86l14.99,18.26h-12.88l-14.6-17.79h-18.73h-6.44v17.79h-9.98
	V61.28v-9.93h9.98H214.45z"/>
<path class="st0" d="M277.49,28.6v50.47h-10.74V28.6H277.49z"/>
<path class="st0" d="M159.07,28.6h-5.29h-5.66h-29.83v9.93h9.9h19.93h1.92h3.74h5.29c4.94,0,8.99,4.06,8.99,9.01v12.58
	c0,4.96-4.04,9.01-8.99,9.01h-5.29h-5.66h-19.93V49.27h-9.9v29.8h29.83h5.66h5.29c10.39,0,18.89-8.52,18.89-18.94V47.54
	C177.95,37.12,169.45,28.6,159.07,28.6z"/>
<path class="st0" d="M310.5,45.75l13.04,20.86c0.73,1.17,2.43,1.17,3.16,0l13.02-20.86l6.2-9.93l4.51-7.22h12.4l-28.71,45.98
	c-1.75,2.8-4.81,4.5-8.11,4.5h-1.83c-3.3,0-6.36-1.7-8.11-4.5L287.38,28.6h12.4l4.51,7.22L310.5,45.75z"/>
<path class="st0" d="M415.8,69.14c3.05,0,5.55-2.28,5.59-5.09c0-0.03,0-0.05,0-0.08s0-0.05,0-0.08c-0.04-2.78-2.5-5.05-5.51-5.09
	c-0.03,0-0.06,0-0.08,0h-7.87h-24.2c-8.98,0-16.33-6.8-16.33-15.1c0-6.49,4.49-12.06,10.74-14.18c1.75-0.59,3.63-0.92,5.59-0.92
	h45.71v9.93h-8.06h-37.65c-3.05,0-5.55,2.29-5.59,5.09c0,0.03,0,0.05,0,0.08s0,0.05,0,0.08c0.04,2.78,2.5,5.05,5.51,5.09
	c0.03,0,0.06,0,0.08,0h7.87l24.2,0c8.98,0,16.33,6.8,16.33,15.1c0,6.49-4.49,12.06-10.74,14.18c-1.75,0.59-3.63,0.92-5.59,0.92
	h-45.71v-9.93h8.05H415.8z"/>
<path class="st0" d="M504.91,38.53h-26.99v40.54h-10.74V38.53h-26.99V28.6h26.99h10.74h26.99V38.53z"/>
<path class="st0" d="M576.25,47.54v12.58c0,10.42-9.22,18.94-20.49,18.94h-23.75c-11.27,0-20.49-8.52-20.49-18.94V47.54
	c0-10.42,9.22-18.94,20.49-18.94h23.75C567.03,28.6,576.25,37.12,576.25,47.54z M555.76,69.14c5.36,0,9.75-4.06,9.75-9.01V47.54
	c0-4.96-4.39-9.01-9.75-9.01h-23.75c-5.36,0-9.75,4.06-9.75,9.01v12.58c0,4.96,4.39,9.01,9.75,9.01H555.76z"/>
<path class="st0" d="M587.96,28.6h64.72v9.93h-64.72V28.6z M587.96,58.8v20.27h10.74V58.8h43.24v-9.93h-8.96H598.7h-1.78h-8.96V58.8
	z"/>
<path class="st0" d="M660.83,28.6h64.72v9.93h-64.72V28.6z M660.83,58.8v20.27h10.74V58.8h43.24v-9.93h-8.96h-34.29h-1.78h-8.96
	V58.8z"/>
<g>
	<path class="st0" d="M22.3,74.06c1.93-5.71,3.81-11.32,5.72-16.91c1.48-4.3,2.99-8.59,4.51-12.88c0.95-2.69,0.31-5.35-0.07-8.02
		c-0.27-1.91-0.6-3.8-0.9-5.7c-0.21-1.34,0.2-2.39,1.42-3.09c3.08-1.78,6.16-3.55,9.2-5.39c1.42-0.86,2.76-0.83,4.23-0.2
		c0.45,0.19,1.07,0.2,1.56,0.08c1.72-0.42,3.42-0.96,5.14-1.38c0.31-0.08,0.84,0.05,1.03,0.28c2.56,3.22,5.07,6.47,7.65,9.79
		c-0.6,0.67-1.2,1.31-1.76,1.98c-0.91,1.1-0.8,2.04,0.32,2.95c3.76,3.07,6.63,6.78,7.2,11.72c0.3,2.62,0.12,5.34-0.16,7.98
		c-0.61,5.78-1.38,11.54-2.15,17.3c-0.31,2.3-1.34,4.31-2.94,5.99c-2,2.09-4.49,2.44-7.18,1.81c-5.4-1.28-10.79-2.58-16.17-3.93
		c-2.31-0.58-2.59-0.48-3.31,1.83c-0.09,0.27-0.21,0.54-0.35,0.89C30.95,77.45,26.66,75.77,22.3,74.06z M62.21,59.73
		c-0.11-0.98-0.15-1.98-0.36-2.96c-0.73-3.43-2.6-5.75-6.28-6.27c-2.05-0.29-4.09-0.66-6.14-0.98c-3.77-0.6-4.43-0.76-6.84,3.55
		c-2.71,4.85-3.51,10.25-4.48,15.6c-0.35,1.94,0.41,3.33,2.3,3.87c5.19,1.48,10.39,2.95,15.64,4.21c3.02,0.73,4.65-0.53,4.98-3.61
		C61.52,68.7,61.83,64.22,62.21,59.73z"/>
	<path class="st0" d="M65.16,26.95c-1.89-2.5-3.71-4.91-5.61-7.42c2.53-1.33,4.95-2.6,7.36-3.86c4.2-2.2,8.43-4.33,12.58-6.62
		c3.58-1.98,7.35-3.13,11.43-3.15c5.81-0.03,11.63-0.01,17.66-0.01c-0.57,1.04-1.24,1.97-1.61,3.01c-0.78,2.2-2.21,2.9-4.51,2.83
		c-3.14-0.09-6.3,0.08-9.43,0.41c-3.62,0.39-6.95,1.82-10.03,3.7C77.06,19.45,71.18,23.19,65.16,26.95z"/>
	<path class="st0" d="M19.61,86.07c2.59,1.02,5.12,2.01,7.78,3.05c-0.57,1.35-1.03,2.64-1.64,3.85c-1.41,2.8-2.89,5.58-4.37,8.34
		c-0.16,0.3-0.57,0.67-0.86,0.68c-3.28,0.05-6.57,0.03-10.15,0.03C14.74,97.32,17.53,91.97,19.61,86.07z"/>
	<path class="st0" d="M21.26,75.08c0.24,0.08,0.56,0.17,0.86,0.29c4.08,1.62,8.17,3.25,12.25,4.88c1.44,0.58,1.62,1.15,0.77,2.42
		c-1.66,2.49-1.66,2.49-4.38,1.37c-3.65-1.5-7.3-3.02-10.96-4.5c-0.62-0.25-0.9-0.52-0.67-1.22c0.18-0.56,0.29-1.16,0.31-1.74
		C19.49,75.42,20.32,75.26,21.26,75.08z"/>
	<path class="st0" d="M32.6,85.96c-1.23,0.8-2.22,1.48-3.25,2.09c-0.23,0.14-0.65,0.12-0.92,0.01c-2.86-1.09-5.72-2.2-8.55-3.36
		c-0.32-0.13-0.67-0.59-0.72-0.93c-0.15-1.05-0.16-2.12-0.24-3.44C23.5,82.22,27.9,84.03,32.6,85.96z"/>
	<path class="st0" d="M55.25,20.25c1.92-1.15,2.95-0.34,3.98,1.17c1.6,2.35,3.42,4.56,5.22,6.91c-0.55,0.51-1.07,1-1.69,1.57
		C60.22,26.63,57.73,23.43,55.25,20.25z"/>
	<path class="st0" d="M59.05,53.94c-2.28,0.86-4.5,1.68-6.7,2.53c-2.59,1.01-3.13,2.24-2.28,4.95c1.4,4.44,2.77,8.88,4.24,13.6
		c-1.93-0.55-3.68-1.03-5.42-1.57c-0.19-0.06-0.31-0.47-0.38-0.74c-1.11-4.06-2.24-8.12-3.29-12.2c-0.76-2.94,0.63-5.49,3.49-6.54
		c1.87-0.69,3.76-1.33,5.65-1.99C56.15,51.37,57.99,52.11,59.05,53.94z"/>
</g>
</svg>
